<svg width="720" height="640" viewBox="0 0 720 640" fill="none" xmlns="http://www.w3.org/2000/svg">
  <path d="M110 142H610" stroke="#2F3437" stroke-width="24" stroke-linecap="round"/>
  <path d="M110 314H610" stroke="#2F3437" stroke-width="24" stroke-linecap="round"/>
  <path d="M110 486H610" stroke="#2F3437" stroke-width="24" stroke-linecap="round"/>
  <rect x="148" y="66" width="96" height="76" rx="12" fill="#E9EFE6" stroke="#2F3437" stroke-width="16"/>
  <rect x="280" y="52" width="110" height="90" rx="12" fill="#FFFFFF" stroke="#2F3437" stroke-width="16"/>
  <rect x="428" y="82" width="128" height="60" rx="12" fill="#F7D9B4" stroke="#2F3437" stroke-width="16"/>
  <rect x="150" y="218" width="130" height="96" rx="12" fill="#FFFFFF" stroke="#2F3437" stroke-width="16"/>
  <rect x="318" y="236" width="84" height="78" rx="12" fill="#E9EFE6" stroke="#2F3437" stroke-width="16"/>
  <rect x="448" y="198" width="108" height="116" rx="12" fill="#FFFFFF" stroke="#2F3437" stroke-width="16"/>
  <rect x="150" y="394" width="108" height="92" rx="12" fill="#F7D9B4" stroke="#2F3437" stroke-width="16"/>
  <rect x="300" y="372" width="120" height="114" rx="12" fill="#FFFFFF" stroke="#2F3437" stroke-width="16"/>
  <rect x="462" y="414" width="94" height="72" rx="12" fill="#E9EFE6" stroke="#2F3437" stroke-width="16"/>
  <path d="M132 142V538" stroke="#2F3437" stroke-width="20" stroke-linecap="round"/>
  <path d="M588 142V538" stroke="#2F3437" stroke-width="20" stroke-linecap="round"/>
  <circle cx="344" cy="92" r="14" fill="#E67E22"/>
  <circle cx="504" cy="450" r="12" fill="#2E7D32"/>
</svg>
